{
	"asset":{
		"generator":"Khronos glTF Blender I/O v4.3.47",
		"version":"2.0"
	},
	"scene":0,
	"scenes":[
		{
			"name":"Scene",
			"nodes":[
				0
			]
		}
	],
	"nodes":[
		{
			"mesh":0,
			"name":"extractor_hood",
			"translation":[
				0,
				0.41217947006225586,
				-0.3835369348526001
			]
		}
	],
	"meshes":[
		{
			"name":"extractor_hood",
			"primitives":[
				{
					"attributes":{
						"POSITION":0,
						"NORMAL":1,
						"TEXCOORD_0":2
					},
					"indices":3
				}
			]
		}
	],
	"accessors":[
		{
			"bufferView":0,
			"componentType":5126,
			"count":235,
			"max":[
				0.9999999403953552,
				1.1878206729888916,
				0.8482587337493896
			],
			"min":[
				-1,
				-0.8121792078018188,
				-0.7517411708831787
			],
			"type":"VEC3"
		},
		{
			"bufferView":1,
			"componentType":5126,
			"count":235,
			"type":"VEC3"
		},
		{
			"bufferView":2,
			"componentType":5126,
			"count":235,
			"type":"VEC2"
		},
		{
			"bufferView":3,
			"componentType":5123,
			"count":636,
			"type":"SCALAR"
		}
	],
	"bufferViews":[
		{
			"buffer":0,
			"byteLength":2820,
			"byteOffset":0,
			"target":34962
		},
		{
			"buffer":0,
			"byteLength":2820,
			"byteOffset":2820,
			"target":34962
		},
		{
			"buffer":0,
			"byteLength":1880,
			"byteOffset":5640,
			"target":34962
		},
		{
			"buffer":0,
			"byteLength":1272,
			"byteOffset":7520,
			"target":34963
		}
	],
	"buffers":[
		{
			"byteLength":8792,
			"uri":"extractor_hood.bin"
		}
	]
}
