{
	"asset":{
		"generator":"Khronos glTF Blender I/O v4.3.47",
		"version":"2.0"
	},
	"scene":0,
	"scenes":[
		{
			"name":"Scene",
			"nodes":[
				0
			]
		}
	],
	"nodes":[
		{
			"mesh":0,
			"name":"fridge_door_top"
		}
	],
	"meshes":[
		{
			"name":"fridge_door_top",
			"primitives":[
				{
					"attributes":{
						"POSITION":0,
						"NORMAL":1,
						"TEXCOORD_0":2
					},
					"indices":3
				}
			]
		}
	],
	"accessors":[
		{
			"bufferView":0,
			"componentType":5126,
			"count":1046,
			"max":[
				1.040000557899475,
				3,
				1.1163798570632935
			],
			"min":[
				-1,
				0,
				-0.5
			],
			"type":"VEC3"
		},
		{
			"bufferView":1,
			"componentType":5126,
			"count":1046,
			"type":"VEC3"
		},
		{
			"bufferView":2,
			"componentType":5126,
			"count":1046,
			"type":"VEC2"
		},
		{
			"bufferView":3,
			"componentType":5123,
			"count":3072,
			"type":"SCALAR"
		}
	],
	"bufferViews":[
		{
			"buffer":0,
			"byteLength":12552,
			"byteOffset":0,
			"target":34962
		},
		{
			"buffer":0,
			"byteLength":12552,
			"byteOffset":12552,
			"target":34962
		},
		{
			"buffer":0,
			"byteLength":8368,
			"byteOffset":25104,
			"target":34962
		},
		{
			"buffer":0,
			"byteLength":6144,
			"byteOffset":33472,
			"target":34963
		}
	],
	"buffers":[
		{
			"byteLength":39616,
			"uri":"fridge.bin"
		}
	]
}
