{
	"asset":{
		"generator":"Khronos glTF Blender I/O v4.3.47",
		"version":"2.0"
	},
	"scene":0,
	"scenes":[
		{
			"name":"Scene",
			"nodes":[
				0
			]
		}
	],
	"nodes":[
		{
			"mesh":0,
			"name":"stove"
		}
	],
	"meshes":[
		{
			"name":"stove",
			"primitives":[
				{
					"attributes":{
						"POSITION":0,
						"NORMAL":1,
						"TEXCOORD_0":2
					},
					"indices":3
				}
			]
		}
	],
	"accessors":[
		{
			"bufferView":0,
			"componentType":5126,
			"count":1688,
			"max":[
				1,
				1.2999999523162842,
				0.926233172416687
			],
			"min":[
				-1,
				0,
				-0.7500004172325134
			],
			"type":"VEC3"
		},
		{
			"bufferView":1,
			"componentType":5126,
			"count":1688,
			"type":"VEC3"
		},
		{
			"bufferView":2,
			"componentType":5126,
			"count":1688,
			"type":"VEC2"
		},
		{
			"bufferView":3,
			"componentType":5123,
			"count":4068,
			"type":"SCALAR"
		}
	],
	"bufferViews":[
		{
			"buffer":0,
			"byteLength":20256,
			"byteOffset":0,
			"target":34962
		},
		{
			"buffer":0,
			"byteLength":20256,
			"byteOffset":20256,
			"target":34962
		},
		{
			"buffer":0,
			"byteLength":13504,
			"byteOffset":40512,
			"target":34962
		},
		{
			"buffer":0,
			"byteLength":8136,
			"byteOffset":54016,
			"target":34963
		}
	],
	"buffers":[
		{
			"byteLength":62152,
			"uri":"stove.bin"
		}
	]
}
