{
	"asset":{
		"generator":"Khronos glTF Blender I/O v4.3.47",
		"version":"2.0"
	},
	"scene":0,
	"scenes":[
		{
			"name":"Scene",
			"nodes":[
				0
			]
		}
	],
	"nodes":[
		{
			"mesh":0,
			"name":"wall_shelf_kitchen_hooks_decorated"
		}
	],
	"meshes":[
		{
			"name":"wall_shelf_kitchen_hooks_decorated",
			"primitives":[
				{
					"attributes":{
						"POSITION":0,
						"NORMAL":1,
						"TEXCOORD_0":2
					},
					"indices":3
				}
			]
		}
	],
	"accessors":[
		{
			"bufferView":0,
			"componentType":5126,
			"count":1125,
			"max":[
				0.9999998807907104,
				0.40162211656570435,
				0.34999996423721313
			],
			"min":[
				-0.9999998807907104,
				-0.40162211656570435,
				-0.34999996423721313
			],
			"type":"VEC3"
		},
		{
			"bufferView":1,
			"componentType":5126,
			"count":1125,
			"type":"VEC3"
		},
		{
			"bufferView":2,
			"componentType":5126,
			"count":1125,
			"type":"VEC2"
		},
		{
			"bufferView":3,
			"componentType":5123,
			"count":2706,
			"type":"SCALAR"
		}
	],
	"bufferViews":[
		{
			"buffer":0,
			"byteLength":13500,
			"byteOffset":0,
			"target":34962
		},
		{
			"buffer":0,
			"byteLength":13500,
			"byteOffset":13500,
			"target":34962
		},
		{
			"buffer":0,
			"byteLength":9000,
			"byteOffset":27000,
			"target":34962
		},
		{
			"buffer":0,
			"byteLength":5412,
			"byteOffset":36000,
			"target":34963
		}
	],
	"buffers":[
		{
			"byteLength":41412,
			"uri":"wall_shelf_kitchen_hooks_decorated.bin"
		}
	]
}
