{
	"asset":{
		"generator":"Khronos glTF Blender I/O v4.3.47",
		"version":"2.0"
	},
	"scene":0,
	"scenes":[
		{
			"name":"Scene",
			"nodes":[
				0
			]
		}
	],
	"nodes":[
		{
			"mesh":0,
			"name":"wall_papertowel_holder"
		}
	],
	"meshes":[
		{
			"name":"wall_papertowel_holder",
			"primitives":[
				{
					"attributes":{
						"POSITION":0,
						"NORMAL":1,
						"TEXCOORD_0":2
					},
					"indices":3
				}
			]
		}
	],
	"accessors":[
		{
			"bufferView":0,
			"componentType":5126,
			"count":190,
			"max":[
				0.800000011920929,
				0.24645446240901947,
				0.2512935400009155
			],
			"min":[
				-0.800000011920929,
				-0.32854562997817993,
				-0.23870649933815002
			],
			"type":"VEC3"
		},
		{
			"bufferView":1,
			"componentType":5126,
			"count":190,
			"type":"VEC3"
		},
		{
			"bufferView":2,
			"componentType":5126,
			"count":190,
			"type":"VEC2"
		},
		{
			"bufferView":3,
			"componentType":5123,
			"count":684,
			"type":"SCALAR"
		}
	],
	"bufferViews":[
		{
			"buffer":0,
			"byteLength":2280,
			"byteOffset":0,
			"target":34962
		},
		{
			"buffer":0,
			"byteLength":2280,
			"byteOffset":2280,
			"target":34962
		},
		{
			"buffer":0,
			"byteLength":1520,
			"byteOffset":4560,
			"target":34962
		},
		{
			"buffer":0,
			"byteLength":1368,
			"byteOffset":6080,
			"target":34963
		}
	],
	"buffers":[
		{
			"byteLength":7448,
			"uri":"wall_papertowel_holder.bin"
		}
	]
}
