{
	"asset":{
		"generator":"Khronos glTF Blender I/O v4.3.47",
		"version":"2.0"
	},
	"scene":0,
	"scenes":[
		{
			"name":"Scene",
			"nodes":[
				0
			]
		}
	],
	"nodes":[
		{
			"mesh":0,
			"name":"wall_cabinet_corner"
		}
	],
	"meshes":[
		{
			"name":"wall_cabinet_corner",
			"primitives":[
				{
					"attributes":{
						"POSITION":0,
						"NORMAL":1,
						"TEXCOORD_0":2
					},
					"indices":3
				}
			]
		}
	],
	"accessors":[
		{
			"bufferView":0,
			"componentType":5126,
			"count":341,
			"max":[
				1.027336597442627,
				0.5001392364501953,
				1.0275213718414307
			],
			"min":[
				-0.7226634621620178,
				-0.4998607635498047,
				-0.7224787473678589
			],
			"type":"VEC3"
		},
		{
			"bufferView":1,
			"componentType":5126,
			"count":341,
			"type":"VEC3"
		},
		{
			"bufferView":2,
			"componentType":5126,
			"count":341,
			"type":"VEC2"
		},
		{
			"bufferView":3,
			"componentType":5123,
			"count":936,
			"type":"SCALAR"
		}
	],
	"bufferViews":[
		{
			"buffer":0,
			"byteLength":4092,
			"byteOffset":0,
			"target":34962
		},
		{
			"buffer":0,
			"byteLength":4092,
			"byteOffset":4092,
			"target":34962
		},
		{
			"buffer":0,
			"byteLength":2728,
			"byteOffset":8184,
			"target":34962
		},
		{
			"buffer":0,
			"byteLength":1872,
			"byteOffset":10912,
			"target":34963
		}
	],
	"buffers":[
		{
			"byteLength":12784,
			"uri":"wall_cabinet_corner.bin"
		}
	]
}
